<mxfile host="65bd71144e">
    <diagram id="HIP3nbAZw_EuaXWnEj3U" name="Page-1">
        <mxGraphModel dx="606" dy="563" grid="1" gridSize="10" guides="1" tooltips="1" connect="1" arrows="1" fold="1" page="1" pageScale="1" pageWidth="850" pageHeight="1100" math="0" shadow="0">
            <root>
                <mxCell id="0"/>
                <mxCell id="1" parent="0"/>
                <mxCell id="7" value="http://ics2o.mths.ca" style="swimlane;whiteSpace=wrap;html=1;startSize=30;" parent="1" vertex="1">
                    <mxGeometry x="45" y="30" width="760" height="480" as="geometry"/>
                </mxCell>
                <mxCell id="8" value="Get your movie" style="whiteSpace=wrap;html=1;" vertex="1" parent="7">
                    <mxGeometry y="20" width="760" height="40" as="geometry"/>
                </mxCell>
                <mxCell id="9" value="what is your age?" style="text;html=1;align=center;verticalAlign=middle;resizable=0;points=[];autosize=1;strokeColor=none;fillColor=none;" vertex="1" parent="7">
                    <mxGeometry y="70" width="120" height="30" as="geometry"/>
                </mxCell>
                <mxCell id="10" value="your age&amp;nbsp;" style="whiteSpace=wrap;html=1;" vertex="1" parent="7">
                    <mxGeometry x="15" y="110" width="115" height="20" as="geometry"/>
                </mxCell>
                <mxCell id="11" value="Get video" style="rounded=1;whiteSpace=wrap;html=1;" vertex="1" parent="7">
                    <mxGeometry x="5" y="150" width="95" height="30" as="geometry"/>
                </mxCell>
                <mxCell id="12" value="out put" style="text;html=1;align=center;verticalAlign=middle;resizable=0;points=[];autosize=1;strokeColor=none;fillColor=none;" vertex="1" parent="7">
                    <mxGeometry x="15" y="195" width="60" height="30" as="geometry"/>
                </mxCell>
                <mxCell id="13" value="" style="shape=image;verticalLabelPosition=bottom;labelBackgroundColor=default;verticalAlign=top;aspect=fixed;imageAspect=0;image=data:image/jpeg,/9j/4AAQSkZJRgABAQAAAQABAAD/2wCEAAoHCBISEhERERUREQ8PEREPDw8PERERDw8PGBQZGRgUGBgcIS4lHB4rHxgYJjgmKy8xNTU1GiQ7QDszTS40NTEBDAwMEA8QGhISHjQhISExNDQ0MTQ2PzQ0NDQ0NDQ0NDQ0NDQ0MTQxNDQ0NDQ0NDQ0NDQ0NDQ0NDQ0NDQ0NDE0NP/AABEIAKMBNgMBIgACEQEDEQH/xAAcAAABBQEBAQAAAAAAAAAAAAADAAECBAUGBwj/xABGEAACAQIDBAYGBwINBQAAAAABAgADEQQSIQUxQVEGEyJhcZEUMlKBobEjQmJyksHRU7IHFTNUc4KTs8PS0+HwFoOio8L/xAAZAQADAQEBAAAAAAAAAAAAAAAAAQIDBAX/xAAlEQACAgICAgIDAAMAAAAAAAAAAQIRAxIhUTFBBBMUImEycYH/2gAMAwEAAhEDEQA/APU1EmIyiSAmFnQxCSEYSQhYhWitHigIVopKPCxWRtGtJxWhYWDtGtCRWjsdgrRrQuWNllbDsFaK0IVjFY7AhGkiIxEdgRkZO0a0dgQMaSIjER2KiN5Tx20EpDU3Y+qvHxPdLbaXPLWecbS2kXqO97lmIHcvACTKaii8cNmE25typVJQGy7rLoLTlsaLe+atDDk3d+yvAH1j7pQ2i6nQbhunLL9lbOuK14RjOYFoV4JhMkU2CYwTQzLBMJojNgzBsIRoJjLRmyDQbSbGDJlIloiTIsY7GQYy0Q0MTBsZImDYy0S0MYoxijJo+thJSIkhMC2PHiiAgIQkhFaK0BDxRRRiHvFeRjwCh7xRrx7wFQpWxeNSkLsbE7gNSZX23jTQos62zXULfUXJ1+AM4HaW0mrOWY6kAC2gAEwzZlDj2dOD47ycvwdjW6S0l+qx96fkTMyv0z9mmP6xJ+VpyD1TKrvczll8mb8M74/Dxryjq36ZVjuVB3ZSfmZA9Lqx4qPBVnKFpHNJWefZf4+NekdLW6U1z9YjwAHymbW227as7se92tMlmgmMbyTflgscF4Rqtt+vqA7AcAGMgdvV/bf8RmQY0pTl2Jwj0bX/AFLiALdY9uWYyi+1qnAhfugL8pQMG0tSl2RrFeg1XGu28mU3cmO0E0aslkHMExhGgnlohkWaBYyTGDaWkZtkWME0I0E0tEMg0GYRoNpaIZBpBpNjBtKRLINIGTMjaWiWRikrRRio+tVEmBGEmJzWDYgIrRxHhZNitFaKKFiFaK0V4rwsBWitEDHjsBrRWkoo7Ecx02e1KmPaqfIf7zgna867p1tBbrRGpXtMb7rjQeNtffOILzz/AJH7TPX+Imsas3dm9HK2Jp9ZTNOwJUhmZSCADyI4iKt0Sxg3Uw3elSn+ZE6ToBVvQqr7NQHzUf5Z1V5tD48JRTMMny8sJuPFI8rPRbG/sW/HT/zQFXo7jF30Kh+6A/7t563GJlfjQ7ZH5uTpHjVTZGIG+hXHjRqW+UqVMJUBsUqA8ijA/Ke1s0bPD8ePZf5cujxulsXFPotCub8eqcL5kWlteiWOO6gw8XpD5tPWc0V5osEeyX8mfSPKR0Mx37IDxq0v80hU6GY4bqQb7tWl+bT1gmQJlLDEX5E/4eLYzo/iqYu9CqAN7KhdR4lbzIZZ78TKGO2Xh6/8tSpufaZRnHgw1HnD6V6Y1nftHhLCCeeobV6AUXu2GdqTcEe70yeV/WHxnn21dl1cPUKVUKON1/VYe0p3ESXBxLU1LwZbiBaWHEA4giWDYwbSbQbTRGbIMYNjJsYNpSJZFjIGSIiCyiCGWLLCWnSbE6F4vFBXyijRaxFStcF1PFEGp99h3xhVnMZYp6rhf4O8Ko+karVbnmFNR4BdfMmKVQas9ZVoQNM5K0OlSYONDcbLgaPmlYPJB5NEuIfNGLwJeV61e0THGFllqwgziRznO7Q2oVNgZivtKoTfMR4SKkzZYV7O/SuDCh5xWB2q1wGM6bDYi4EpWvJEsVco0ryhtjaa4ek1Q6kdlV9pju/M+6H6yeedM9r9ZU6tDdKV1PIvxP5e6E5axsWLDtKn4MTG4tqjszkszEkk8TKwMF1kkjzhq2er4R6D0BNqdY8C6j3hT+onXhtB3zjOi1VadJU4sS7eJ/2AnUrV7IPcfmZ3Y7UaPNzwubfZaZhy+cDUrAcB5mCerYTD2ptIIDY6ym36IhjvyaNfaCry/Ef1kae0FPAfiP6ziMRjGdr3Mv7JxC5XZywyvTRStjlzhzcqd47A4j8ppGLrktqJ2tOsDwHmYYMOQ8zMrDNoCCGU7mXVfA8Qe42l9GhZEooKSOQ8zIkjkPMxi0iWjsWo5I5DzMRAIJtYgjie+QzSWbQ+I/OOwogZlbd2RTxdJqb2DWJpva7U35+HMcZfepaA9IERoo+zwzaGGei703GV0Yow5ETOZp6D/CXs4Xp4pB6/0dS3FwLq3lcf1RPOnEjWmW37GdoNmicwZMaRm2MxkCY5jhZaJGVZYwmDqVnWlSRnqObKi7z+g7zpDbN2dUxFRaNFczvw3Kq8WY8AOc9e6NdH6OBp9mz13FqtcjVvsqPqr3ceMY4xszei3QanhstXEha2JsCEIDUaJ7gfWb7XlznYGCauIJ8TDVmnCDMYpSbExStWTaNVKkMtaY64iEGJg4ko11xEIteYvpUImKkuJXBsNWmdja+hgzidJn4uvoZGhcaRk417sZWzRYl9YDNBxDYt0m1HjOo2bidBOPR9ZsYXFhFLMbBRcw1BM1uke2uookKbVKgKpzUcWnmtSoSby5traLVqhY7tyj2V4CZV5x5Hs+DoxpRRYBlvA0szC+4amUFabGBWyX4tr7o8ULkPJPWJvbMqWM6ylW7Cd6t+8Zw+DqWM6VMTanS71f8Afad2lnI5XRoYmtpOV2rUuZqYjFaTnsdUuY1CgcuKKrNLuDf6Gr/S4b92rM1mlzDN9BX/AKXDfu1ZVGbZ0ey8WVtY20seRHIjiJv0cQrclP8A4n9P+bpx2zEZlz6JTBsajmyA8hxY9wuZs0sciaJcn9o4Gb+qu5fifCGgnKzadyDY6GQNaZJxd9Sbk6kneYxxUNB2aprRmr9ljyK//Ux2xUl6V9FUPJqfxzx6CckLF4215krtM5rQOLxF7zK6zWaRxoUsr9Gl0nqipg6wb6oV17mDD/fznllQ6Cdn0mx+XD9WDrUYfhGvztOHZphkSUqRcW2rYJ5AybmQkIGMBLWCwj1XWnTGZ2NhyHMk8BB0KLOwVQSzGwA3mdpsbDJhk4Gq47bch7I7vnNIRcmTKSib+wMBTwdPKlmqPbravFzyHJRymk2NnOHH98YY7vnRokZ/Yzoji4J8VMI43vkGxnfFQtzabFRTnmxnfFKonY6QYqTGKmL6RJLiJibGz6TJpipjDESYxEB2bXpcq4jEXlD0iQeteJoew1V9YPPIO8GXkND2LKtrAbQx1hkU6DeRxMi9XKpbidF/MzEqvMssqVI1xq+WTepeMGlcPJkzl1N9i1SNzNtTYAcgBMPDHUeIHxmuXnTgj5Mc0vBapvabL4i1PD96P/etOdV5oYl7UsL9yr/fPOpI5myxVxY5jzmdXq3hzga5pHEBG9HsfpOzl0bKTvvv0jel0hWV2oA0gSTQ6xwCLm3b3m2njaLlluUV/f8ApRLTR2c7inUAoPWV2RkOVzTV0zjUKO16+643a33TPp1VG9A2/exHL9D5y5s/DPiWenh6IZwmbSoFKqDa92IB9YCCTIlKNcJllvSXIZ0qkgZVHVsqovsqoFlHcABDotUfUqfgf9Jk4nDVaTtTqKyuhAdbhspKhhqpI3EH3yBdhzHDW++aIize+l9ip+B/0i+l9ip+B/0nPGuecv1qoK0zTRirWDZURrWHqZlJJY5XbtZTYjS1ow/2Xaj1FF2R1HNkZR5kSSYn6CseT0P8SYtatYbmBLMQWXLddLcfHzhaNY+jYjuqYb/EjIbI1a8qtU3ngNSeQgTUJmbtnF9WOrHrb38eXuhKWqscY7MzNt4zrKn2V7KjumSzSVR7mDAnK3bs6P4h4fDYRqhso8Sdw8ZLC4YubDQcTyE26aqgyroB5k8zNIY9uX4M55NeF5J4OilIdnVyO053nuHIR6uIMhmg3E6UklSOVtvlkuvMl6QZVYxs0YiycSZFsQxlYvEGipDth+sMUrl4oCN0VoVKkzg8OjznOpMuGrGOIlRngWeIdmkuIhFqzIWpLKVYILLzPIJqbf8AAOJgOsj16nVqR9dhqPZHARy4VguWB2jiQTYequgmWzxq1S5gc045cuzpTpBg0IWMrBoUNDUexZpuRY8jebJqXseDC4nPK81cLihkCtuvYN7J4Hwl43q+SZrZcF0PNLPTqUqKmslN6aurK6V2OtRmBBRCLWMxXupsfEHgRzEjnnUjlbN/rB1Zo+mU+pLBzTyYrKW526v4eBgaqows2LpsBqAy4xgDz1SY94xMdE2aRw1L+c0f7PF/6cs4Kr1DFqONpU2K5CVp4q5W4Nv5PmBMEtFnhQWdDiK/WOztjaZdspZgmLXMVUKCQKe+yjygnSm2jYumwG4MmLIHnTmJnizwodmv6PS/nNH+zxX+nCNkIUel0rILIBTxYC7+VPfqdd8w88YvKSE2jZenTb1sXSa27NTxZt/64nqU0oVUWslV6lSiVVErLZUz3JLoo+sJiZoryqJstLVyhn9hSR97cJymOrFmJPEzax9XLTP2iJzdZrzHK+aOjEv1sCx1h8LQaowVRc/ADmZGkhchQMxOgA33nTYLCCkltM51c/l4SYQ2Ypy1QGlhxTXKPeeZkssM0iROpKuDkbt2yK05FxCBoGo0YivUgiYZhIdXAAV4xaFNODdZIAi8UQWPADQD6wy1JULRs8xo2suNUg80Crw9JSxsoJJ3AC5PuhQ7I5pNHltNmVG3gIPtmx/CNfhJulGgLkirUBsAR2EPh9aKqKSbJUKZRRUfQWuine3JiOXzmXjMTmJN9++Nj9oM5Nzvma9S8znK+EaRVBGqRBoC8cNMqLsshpPNpKytJM8dDsNnhqVTskcx8ZQzx0qRJBsaeF2oVGRxnTkd6+B4TTpMlT+TYH7LEKw89DOXdoJajA3BtNIylEmSjLydp6M4+q3iBcQLi2+YGE2xVp7mNuIOoPumvT6QZhrYHv7Sn3GarKvaM3i6ZJjIZoVdrUzvSme/IAYv4zpfs0/CJW6J+qXYEtIl4R9p0+CU/wACyq227aKEA5ZFt8obof1PsmzyIcwf8bqfWSme/Io+Ub+NE4U0/DD7ES8T7LSmFCyiu2QDYJTH/bX9JM7Y+wnlb5SvtQvpfZHaq9geMw2WauL2itRcuQKd4IJPzlAJczCck5cHRCLjGmamx6KKpe3aOgJ4DulupXErUOyij3wNZ9Z0R4ijlm7kyz1oj9aJSWpJZ5dmQZ6srtVgajwJeS2BeR4W8oIxhesMaYBmaAdpFnMA7mJsCykUjh72ijAkzwmGwtSqbIpIG9zoi+Jmsmy6NPWq3WPvyKSqA/M/CRxG0LDKtlUaBVACj3CZul5NoxbCUMBSp61D1j+yLqg/M/Dwk6m0svZQKi+ygCj4TIq4wnjKNfEk+czcujVRSNKptRu0ATvI+EyamKLXueMB1vab71/gIHNqw77yHbHZZapI5oENJBoqGguaSBgrxwYUMOGkXeQLQYJJ01MdA2TLxB44w1Q7lv3ArfyvAujD1lZR9pSIUJsm1S/nHzyur3PcJNDeFCsLeRvaHVhbdIFb7t8KKsilUyfWmJcMd5hBSEKYKSfsEzm0i99JY6oRGlwhyVx2AAMlYw4oGLq7Qp9CuK9lexuIYLEyiPmhrIPsgvZEpLeGpgDXfwlYVDCI80jHnkynmTVRLz1JUqvEXg21mrZziV47PIhY5WKwoE7RU0JhMks0acB6jIkdhLIpyDiOworskEyS0RGywsNSFNbRQgEULHqExGJJJmfUrRqlXfAO0wbOgd3gGeOWg2MQmyJOre75Rie14iNxbwEVTgeVoAiY3yUaPJKSJCPGERMCqIVWh8N2RfiZVZtRD06ttDu5wElyHd/ce6JMa68TBMwO7WCYR2U0Xxikb10Ru8qL+ckuHot6pZO71l+OvxmapkkcwsRp/wAWk2yuhHG4IMNS2eUvxvxuDM5K5HGHXFtzjTE4plpsPB9RIrjjxl7DuHF+PGXF2YSx1yikaJEcS+yQZoXmlGdFXNBvNFMJE2EjoZktBky/WwtpSq0yImhMgDJBoO8WaQINnjq0rdZJI8dgW0MnvgkMMo1jstRsLQoXl1cNpCYanoJeVNJm58mqikZDqRA5TLmJFmMrkzRcmbRJEkurEgrxzUlUK6HKCPBGrFChWYzcYMxRTnNiBkTFFACB+tEdx+7FFJGgnCOsUUDREmkGiigMC0kYooEjpLA1EaKNjRExLFFEMkI8UUAEJqbN+t4CKKXHyiJ/4sviFpxRTc5y3TicRRS0SylXEzsQIoopCM+pvgjFFMgImSSKKAIt0paThFFA2ibOH3CWxuiimD8mnoy8TvMpvFFNomZBzAM55xRSiGDZzzjRRRCP/9k=;" vertex="1" parent="7">
                    <mxGeometry x="590" y="70" width="155" height="81.5" as="geometry"/>
                </mxCell>
            </root>
        </mxGraphModel>
    </diagram>
</mxfile>